<svg width="720" height="405" viewBox="0 0 720 405" fill="none" xmlns="http://www.w3.org/2000/svg">
<rect width="720" height="405" fill="white"/>
<path d="M164.783 303.12V331H161.143V303.12H164.783ZM197.346 308.68C199.053 308.68 200.573 309.04 201.906 309.76C203.24 310.453 204.293 311.507 205.066 312.92C205.84 314.333 206.226 316.053 206.226 318.08V331H202.626V318.6C202.626 316.413 202.08 314.747 200.986 313.6C199.92 312.427 198.466 311.84 196.626 311.84C194.733 311.84 193.226 312.453 192.106 313.68C190.986 314.88 190.426 316.627 190.426 318.92V331H186.826V318.6C186.826 316.413 186.28 314.747 185.186 313.6C184.12 312.427 182.666 311.84 180.826 311.84C178.933 311.84 177.426 312.453 176.306 313.68C175.186 314.88 174.626 316.627 174.626 318.92V331H170.986V309.08H174.626V312.24C175.346 311.093 176.306 310.213 177.506 309.6C178.733 308.987 180.08 308.68 181.546 308.68C183.386 308.68 185.013 309.093 186.426 309.92C187.84 310.747 188.893 311.96 189.586 313.56C190.2 312.013 191.213 310.813 192.626 309.96C194.04 309.107 195.613 308.68 197.346 308.68ZM210.837 319.96C210.837 317.72 211.291 315.76 212.197 314.08C213.104 312.373 214.344 311.053 215.917 310.12C217.517 309.187 219.291 308.72 221.237 308.72C223.157 308.72 224.824 309.133 226.237 309.96C227.651 310.787 228.704 311.827 229.397 313.08V309.08H233.077V331H229.397V326.92C228.677 328.2 227.597 329.267 226.157 330.12C224.744 330.947 223.091 331.36 221.197 331.36C219.251 331.36 217.491 330.88 215.917 329.92C214.344 328.96 213.104 327.613 212.197 325.88C211.291 324.147 210.837 322.173 210.837 319.96ZM229.397 320C229.397 318.347 229.064 316.907 228.397 315.68C227.731 314.453 226.824 313.52 225.677 312.88C224.557 312.213 223.317 311.88 221.957 311.88C220.597 311.88 219.357 312.2 218.237 312.84C217.117 313.48 216.224 314.413 215.557 315.64C214.891 316.867 214.557 318.307 214.557 319.96C214.557 321.64 214.891 323.107 215.557 324.36C216.224 325.587 217.117 326.533 218.237 327.2C219.357 327.84 220.597 328.16 221.957 328.16C223.317 328.16 224.557 327.84 225.677 327.2C226.824 326.533 227.731 325.587 228.397 324.36C229.064 323.107 229.397 321.653 229.397 320ZM248.268 308.72C250.162 308.72 251.815 309.133 253.228 309.96C254.668 310.787 255.735 311.827 256.428 313.08V309.08H260.108V331.48C260.108 333.48 259.682 335.253 258.828 336.8C257.975 338.373 256.748 339.6 255.148 340.48C253.575 341.36 251.735 341.8 249.628 341.8C246.748 341.8 244.348 341.12 242.428 339.76C240.508 338.4 239.375 336.547 239.028 334.2H242.628C243.028 335.533 243.855 336.6 245.108 337.4C246.362 338.227 247.868 338.64 249.628 338.64C251.628 338.64 253.255 338.013 254.508 336.76C255.788 335.507 256.428 333.747 256.428 331.48V326.88C255.708 328.16 254.642 329.227 253.228 330.08C251.815 330.933 250.162 331.36 248.268 331.36C246.322 331.36 244.548 330.88 242.948 329.92C241.375 328.96 240.135 327.613 239.228 325.88C238.322 324.147 237.868 322.173 237.868 319.96C237.868 317.72 238.322 315.76 239.228 314.08C240.135 312.373 241.375 311.053 242.948 310.12C244.548 309.187 246.322 308.72 248.268 308.72ZM256.428 320C256.428 318.347 256.095 316.907 255.428 315.68C254.762 314.453 253.855 313.52 252.708 312.88C251.588 312.213 250.348 311.88 248.988 311.88C247.628 311.88 246.388 312.2 245.268 312.84C244.148 313.48 243.255 314.413 242.588 315.64C241.922 316.867 241.588 318.307 241.588 319.96C241.588 321.64 241.922 323.107 242.588 324.36C243.255 325.587 244.148 326.533 245.268 327.2C246.388 327.84 247.628 328.16 248.988 328.16C250.348 328.16 251.588 327.84 252.708 327.2C253.855 326.533 254.762 325.587 255.428 324.36C256.095 323.107 256.428 321.653 256.428 320ZM286.26 319.2C286.26 319.893 286.22 320.627 286.14 321.4H268.62C268.753 323.56 269.486 325.253 270.82 326.48C272.18 327.68 273.82 328.28 275.74 328.28C277.313 328.28 278.62 327.92 279.66 327.2C280.726 326.453 281.473 325.467 281.9 324.24H285.82C285.233 326.347 284.06 328.067 282.3 329.4C280.54 330.707 278.353 331.36 275.74 331.36C273.66 331.36 271.793 330.893 270.14 329.96C268.513 329.027 267.233 327.707 266.3 326C265.366 324.267 264.9 322.267 264.9 320C264.9 317.733 265.353 315.747 266.26 314.04C267.166 312.333 268.433 311.027 270.06 310.12C271.713 309.187 273.606 308.72 275.74 308.72C277.82 308.72 279.66 309.173 281.26 310.08C282.86 310.987 284.086 312.24 284.94 313.84C285.82 315.413 286.26 317.2 286.26 319.2ZM282.5 318.44C282.5 317.053 282.193 315.867 281.58 314.88C280.966 313.867 280.126 313.107 279.06 312.6C278.02 312.067 276.86 311.8 275.58 311.8C273.74 311.8 272.166 312.387 270.86 313.56C269.58 314.733 268.846 316.36 268.66 318.44H282.5ZM312.408 308.68C315.075 308.68 317.235 309.493 318.888 311.12C320.542 312.72 321.368 315.04 321.368 318.08V331H317.768V318.6C317.768 316.413 317.222 314.747 316.128 313.6C315.035 312.427 313.542 311.84 311.648 311.84C309.728 311.84 308.195 312.44 307.048 313.64C305.928 314.84 305.368 316.587 305.368 318.88V331H301.728V309.08H305.368V312.2C306.088 311.08 307.062 310.213 308.288 309.6C309.542 308.987 310.915 308.68 312.408 308.68ZM336.874 331.36C334.821 331.36 332.954 330.893 331.274 329.96C329.621 329.027 328.314 327.707 327.354 326C326.421 324.267 325.954 322.267 325.954 320C325.954 317.76 326.434 315.787 327.394 314.08C328.381 312.347 329.714 311.027 331.394 310.12C333.074 309.187 334.954 308.72 337.034 308.72C339.114 308.72 340.994 309.187 342.674 310.12C344.354 311.027 345.674 312.333 346.634 314.04C347.621 315.747 348.114 317.733 348.114 320C348.114 322.267 347.608 324.267 346.594 326C345.608 327.707 344.261 329.027 342.554 329.96C340.848 330.893 338.954 331.36 336.874 331.36ZM336.874 328.16C338.181 328.16 339.408 327.853 340.554 327.24C341.701 326.627 342.621 325.707 343.314 324.48C344.034 323.253 344.394 321.76 344.394 320C344.394 318.24 344.048 316.747 343.354 315.52C342.661 314.293 341.754 313.387 340.634 312.8C339.514 312.187 338.301 311.88 336.994 311.88C335.661 311.88 334.434 312.187 333.314 312.8C332.221 313.387 331.341 314.293 330.674 315.52C330.008 316.747 329.674 318.24 329.674 320C329.674 321.787 329.994 323.293 330.634 324.52C331.301 325.747 332.181 326.667 333.274 327.28C334.368 327.867 335.568 328.16 336.874 328.16ZM357.34 312.08V325C357.34 326.067 357.567 326.827 358.02 327.28C358.474 327.707 359.26 327.92 360.38 327.92H363.06V331H359.78C357.754 331 356.234 330.533 355.22 329.6C354.207 328.667 353.7 327.133 353.7 325V312.08H350.86V309.08H353.7V303.56H357.34V309.08H363.06V312.08H357.34ZM376.775 319.96C376.775 317.72 377.228 315.76 378.135 314.08C379.041 312.373 380.281 311.053 381.855 310.12C383.455 309.187 385.228 308.72 387.175 308.72C389.095 308.72 390.761 309.133 392.175 309.96C393.588 310.787 394.641 311.827 395.335 313.08V309.08H399.015V331H395.335V326.92C394.615 328.2 393.535 329.267 392.095 330.12C390.681 330.947 389.028 331.36 387.135 331.36C385.188 331.36 383.428 330.88 381.855 329.92C380.281 328.96 379.041 327.613 378.135 325.88C377.228 324.147 376.775 322.173 376.775 319.96ZM395.335 320C395.335 318.347 395.001 316.907 394.335 315.68C393.668 314.453 392.761 313.52 391.615 312.88C390.495 312.213 389.255 311.88 387.895 311.88C386.535 311.88 385.295 312.2 384.175 312.84C383.055 313.48 382.161 314.413 381.495 315.64C380.828 316.867 380.495 318.307 380.495 319.96C380.495 321.64 380.828 323.107 381.495 324.36C382.161 325.587 383.055 326.533 384.175 327.2C385.295 327.84 386.535 328.16 387.895 328.16C389.255 328.16 390.495 327.84 391.615 327.2C392.761 326.533 393.668 325.587 394.335 324.36C395.001 323.107 395.335 321.653 395.335 320ZM413.326 327.64L420.126 309.08H424.006L415.406 331H411.166L402.566 309.08H406.486L413.326 327.64ZM426.228 319.96C426.228 317.72 426.681 315.76 427.588 314.08C428.494 312.373 429.734 311.053 431.308 310.12C432.908 309.187 434.681 308.72 436.628 308.72C438.548 308.72 440.214 309.133 441.628 309.96C443.041 310.787 444.094 311.827 444.788 313.08V309.08H448.468V331H444.788V326.92C444.068 328.2 442.988 329.267 441.548 330.12C440.134 330.947 438.481 331.36 436.588 331.36C434.641 331.36 432.881 330.88 431.308 329.92C429.734 328.96 428.494 327.613 427.588 325.88C426.681 324.147 426.228 322.173 426.228 319.96ZM444.788 320C444.788 318.347 444.454 316.907 443.788 315.68C443.121 314.453 442.214 313.52 441.068 312.88C439.948 312.213 438.708 311.88 437.348 311.88C435.988 311.88 434.748 312.2 433.628 312.84C432.508 313.48 431.614 314.413 430.948 315.64C430.281 316.867 429.948 318.307 429.948 319.96C429.948 321.64 430.281 323.107 430.948 324.36C431.614 325.587 432.508 326.533 433.628 327.2C434.748 327.84 435.988 328.16 437.348 328.16C438.708 328.16 439.948 327.84 441.068 327.2C442.214 326.533 443.121 325.587 443.788 324.36C444.454 323.107 444.788 321.653 444.788 320ZM456.499 305.52C455.806 305.52 455.219 305.28 454.739 304.8C454.259 304.32 454.019 303.733 454.019 303.04C454.019 302.347 454.259 301.76 454.739 301.28C455.219 300.8 455.806 300.56 456.499 300.56C457.166 300.56 457.726 300.8 458.179 301.28C458.659 301.76 458.899 302.347 458.899 303.04C458.899 303.733 458.659 304.32 458.179 304.8C457.726 305.28 457.166 305.52 456.499 305.52ZM458.259 309.08V331H454.619V309.08H458.259ZM468.103 301.4V331H464.463V301.4H468.103ZM472.947 319.96C472.947 317.72 473.4 315.76 474.307 314.08C475.213 312.373 476.453 311.053 478.027 310.12C479.627 309.187 481.4 308.72 483.347 308.72C485.267 308.72 486.933 309.133 488.347 309.96C489.76 310.787 490.813 311.827 491.507 313.08V309.08H495.187V331H491.507V326.92C490.787 328.2 489.707 329.267 488.267 330.12C486.853 330.947 485.2 331.36 483.307 331.36C481.36 331.36 479.6 330.88 478.027 329.92C476.453 328.96 475.213 327.613 474.307 325.88C473.4 324.147 472.947 322.173 472.947 319.96ZM491.507 320C491.507 318.347 491.173 316.907 490.507 315.68C489.84 314.453 488.933 313.52 487.787 312.88C486.667 312.213 485.427 311.88 484.067 311.88C482.707 311.88 481.467 312.2 480.347 312.84C479.227 313.48 478.333 314.413 477.667 315.64C477 316.867 476.667 318.307 476.667 319.96C476.667 321.64 477 323.107 477.667 324.36C478.333 325.587 479.227 326.533 480.347 327.2C481.467 327.84 482.707 328.16 484.067 328.16C485.427 328.16 486.667 327.84 487.787 327.2C488.933 326.533 489.84 325.587 490.507 324.36C491.173 323.107 491.507 321.653 491.507 320ZM504.978 313.16C505.724 311.853 506.818 310.787 508.258 309.96C509.698 309.133 511.338 308.72 513.178 308.72C515.151 308.72 516.924 309.187 518.498 310.12C520.071 311.053 521.311 312.373 522.218 314.08C523.124 315.76 523.578 317.72 523.578 319.96C523.578 322.173 523.124 324.147 522.218 325.88C521.311 327.613 520.058 328.96 518.458 329.92C516.884 330.88 515.124 331.36 513.178 331.36C511.284 331.36 509.618 330.947 508.178 330.12C506.764 329.293 505.698 328.24 504.978 326.96V331H501.338V301.4H504.978V313.16ZM519.858 319.96C519.858 318.307 519.524 316.867 518.858 315.64C518.191 314.413 517.284 313.48 516.138 312.84C515.018 312.2 513.778 311.88 512.418 311.88C511.084 311.88 509.844 312.213 508.698 312.88C507.578 313.52 506.671 314.467 505.978 315.72C505.311 316.947 504.978 318.373 504.978 320C504.978 321.653 505.311 323.107 505.978 324.36C506.671 325.587 507.578 326.533 508.698 327.2C509.844 327.84 511.084 328.16 512.418 328.16C513.778 328.16 515.018 327.84 516.138 327.2C517.284 326.533 518.191 325.587 518.858 324.36C519.524 323.107 519.858 321.64 519.858 319.96ZM532.009 301.4V331H528.369V301.4H532.009ZM558.213 319.2C558.213 319.893 558.173 320.627 558.093 321.4H540.573C540.706 323.56 541.439 325.253 542.773 326.48C544.133 327.68 545.773 328.28 547.693 328.28C549.266 328.28 550.573 327.92 551.613 327.2C552.679 326.453 553.426 325.467 553.853 324.24H557.773C557.186 326.347 556.013 328.067 554.253 329.4C552.493 330.707 550.306 331.36 547.693 331.36C545.613 331.36 543.746 330.893 542.093 329.96C540.466 329.027 539.186 327.707 538.253 326C537.319 324.267 536.853 322.267 536.853 320C536.853 317.733 537.306 315.747 538.213 314.04C539.119 312.333 540.386 311.027 542.013 310.12C543.666 309.187 545.559 308.72 547.693 308.72C549.773 308.72 551.613 309.173 553.213 310.08C554.813 310.987 556.039 312.24 556.893 313.84C557.773 315.413 558.213 317.2 558.213 319.2ZM554.453 318.44C554.453 317.053 554.146 315.867 553.533 314.88C552.919 313.867 552.079 313.107 551.013 312.6C549.973 312.067 548.813 311.8 547.533 311.8C545.693 311.8 544.119 312.387 542.813 313.56C541.533 314.733 540.799 316.36 540.613 318.44H554.453Z" fill="#686664"/>
<path d="M474.789 57H264.129C246.785 57 232.692 71.0872 232.692 88.4228V107.238H220.915C216.539 107.238 213 110.776 213 115.15V181.855C213 186.197 216.539 189.767 220.915 189.767H232.692V208.582C232.692 225.886 246.785 239.973 264.129 239.973H474.789C492.132 239.973 506.226 225.886 506.226 208.582V88.4228C506.226 71.0872 492.132 57 474.789 57ZM223.811 178.96V118.045H251.387V178.96H223.811ZM495.414 208.582C495.414 219.968 486.179 229.166 474.789 229.166H264.129C252.738 229.166 243.503 219.968 243.503 208.582V189.767H254.283C258.659 189.767 262.198 186.197 262.198 181.855V115.15C262.198 110.776 258.659 107.238 254.283 107.238H243.503V88.4228C243.503 77.0373 252.738 67.8066 264.129 67.8066H474.789C486.179 67.8066 495.414 77.0373 495.414 88.4228V208.582Z" fill="#AAA6A2"/>
<path d="M381.187 117.98H372.371C370.633 113.477 367.062 109.875 362.589 108.106V99.1967C362.589 97.2026 360.981 95.5945 359.018 95.5945H356.476C354.513 95.5945 352.872 97.2026 352.872 99.1967V106.948H345.504V99.1967C345.504 97.2026 343.895 95.5945 341.9 95.5945H339.358C337.395 95.5945 335.786 97.2026 335.786 99.1967V106.948H328.418V99.1967C328.418 97.2026 326.777 95.5945 324.814 95.5945H322.272C320.309 95.5945 318.7 97.2026 318.7 99.1967V106.948H311.3V99.1967C311.3 97.2026 309.691 95.5945 307.728 95.5945H305.186C303.191 95.5945 301.582 97.2026 301.582 99.1967V108.074C297.013 109.778 293.345 113.413 291.576 118.012H282.148C280.185 118.012 278.576 119.62 278.576 121.582V124.123C278.576 126.085 280.185 127.693 282.148 127.693H290.449V135.09H282.148C280.185 135.09 278.576 136.698 278.576 138.66V141.201C278.576 143.163 280.185 144.803 282.148 144.803H290.449V152.168H282.148C280.185 152.168 278.576 153.777 278.576 155.771V158.311C278.576 160.273 280.185 161.881 282.148 161.881H290.449V169.279H282.148C280.185 169.279 278.576 170.887 278.576 172.849V175.39C278.576 177.352 280.185 178.96 282.148 178.96H291.576C293.345 183.559 297.013 187.193 301.582 188.898V197.743C301.582 199.705 303.191 201.313 305.186 201.313H307.728C309.691 201.313 311.3 199.705 311.3 197.743V190.024H318.7V197.743C318.7 199.705 320.309 201.313 322.272 201.313H324.814C326.777 201.313 328.418 199.705 328.418 197.743V190.024H335.786V197.743C335.786 199.705 337.395 201.313 339.358 201.313H341.9C343.895 201.313 345.504 199.705 345.504 197.743V190.024H352.872V197.743C352.872 199.705 354.513 201.313 356.476 201.313H359.018C360.981 201.313 362.589 199.705 362.589 197.743V188.834C367.062 187.065 370.666 183.463 372.371 178.96H381.187C383.15 178.96 384.759 177.352 384.759 175.39V172.849C384.759 170.887 383.15 169.279 381.187 169.279H373.529V161.881H381.187C383.15 161.881 384.759 160.273 384.759 158.311V155.771C384.759 153.777 383.15 152.168 381.187 152.168H373.529V144.803H381.187C383.15 144.803 384.759 143.163 384.759 141.201V138.66C384.759 136.698 383.15 135.09 381.187 135.09H373.529V127.693H381.187C383.15 127.693 384.759 126.085 384.759 124.123V121.582C384.759 119.62 383.15 118.012 381.187 118.012V117.98ZM363.748 172.945C363.748 177.03 360.466 180.278 356.411 180.278H307.471C303.384 180.278 300.135 176.998 300.135 172.945V124.026C300.135 119.974 303.417 116.693 307.471 116.693H356.411C360.466 116.693 363.748 119.974 363.748 124.026V172.945Z" fill="#AAA6A2"/>
<path d="M347.241 123.223H316.834C311.3 123.223 306.763 127.758 306.763 133.322V163.683C306.763 169.247 311.3 173.782 316.834 173.782H347.241C352.807 173.782 357.312 169.247 357.312 163.683V133.322C357.312 127.758 352.807 123.223 347.241 123.223ZM347.563 163.651C347.563 163.844 347.434 163.973 347.241 163.973H316.834C316.834 163.973 316.512 163.844 316.512 163.651V133.29C316.512 133.097 316.673 132.968 316.834 132.968H347.241C347.434 132.968 347.563 133.097 347.563 133.29V163.651Z" fill="#AAA6A2"/>
<path d="M278.479 194.463C271.078 194.463 265.094 200.477 265.094 207.843C265.094 215.208 271.111 221.222 278.479 221.222C285.847 221.222 291.864 215.208 291.864 207.843C291.864 200.477 285.847 194.463 278.479 194.463ZM278.479 214.339C274.875 214.339 271.979 211.413 271.979 207.843C271.979 204.272 274.907 201.346 278.479 201.346C282.051 201.346 284.979 204.272 284.979 207.843C284.979 211.413 282.051 214.339 278.479 214.339Z" fill="#AAA6A2"/>
<path d="M278.479 101.577C285.847 101.577 291.864 95.563 291.864 88.1977C291.864 80.8325 285.847 74.8181 278.479 74.8181C271.111 74.8181 265.094 80.8325 265.094 88.1977C265.094 95.563 271.111 101.577 278.479 101.577ZM278.479 81.7009C282.051 81.7009 284.979 84.6277 284.979 88.1977C284.979 91.7678 282.051 94.6946 278.479 94.6946C274.907 94.6946 271.979 91.7678 271.979 88.1977C271.979 84.6277 274.907 81.7009 278.479 81.7009Z" fill="#AAA6A2"/>
<path d="M457.518 101.343H422.928C416.074 101.343 410.508 106.907 410.508 113.758V148.333C410.508 155.183 416.074 160.747 422.928 160.747H457.518C464.371 160.747 469.938 155.183 469.938 148.333V113.758C469.938 106.907 464.371 101.343 457.518 101.343ZM459.899 114.369V147.754C459.899 149.394 458.547 150.745 456.906 150.745H423.507C421.866 150.745 420.514 149.394 420.514 147.754V114.369C420.514 112.729 421.866 111.378 423.507 111.378H456.906C458.547 111.378 459.899 112.729 459.899 114.369Z" fill="#AAA6A2"/>
<path d="M465.948 171.007H453.239C449.313 171.007 446.095 174.191 446.095 178.147L434.319 178.244V178.147C434.319 174.191 431.101 171.007 427.175 171.007H414.466C410.54 171.007 407.323 174.191 407.323 178.147V190.851C407.323 194.775 410.54 197.991 414.466 197.991H427.175C431.101 197.991 434.319 194.775 434.319 190.851L446.095 190.723V190.851C446.095 194.775 449.313 197.991 453.239 197.991H465.948C469.874 197.991 473.092 194.775 473.092 190.851V178.147C473.092 174.191 469.874 171.007 465.948 171.007ZM425.47 189.115L416.203 189.018L416.3 179.884L425.47 179.948V189.115ZM464.243 179.948V189.115L454.976 189.018L455.073 179.884L464.243 179.948Z" fill="#AAA6A2"/>
</svg>
